<svg xmlns="http://www.w3.org/2000/svg" viewBox="0 0 100 125" x="0px" y="0px">
  <title>bot1_happy</title>
  <g fill="none" fill-rule="evenodd">
    <path d="M33.3832069,61.2316055 C33.4663305,61.1252515 33.7052431,60.8852671 34.0606164,60.6356114 C34.613312,60.2473334 35.2172668,60.0168253 35.8618908,59.9992577 L35.7533604,59.9992696 C36.4066289,60.0169293 37.0106683,60.2470018 37.5592314,60.6337226 C37.910109,60.881081 38.144039,61.1181155 38.2235934,61.221285 L39.4448784,62.8050978 L42.612504,60.3625278 L41.391219,58.778715 C41.0848685,58.3814269 40.5779442,57.8677752 39.8639741,57.3644473 C38.7121463,56.5524427 37.3707855,56.0415318 35.861452,56.0007304 L35.7529217,56.0007423 C34.2523726,56.0416358 32.9148757,56.5521111 31.7612415,57.3625585 C31.0480478,57.8635891 30.5396267,58.374291 30.2316055,58.7683945 L29,60.3441952 L32.1516014,62.8074062 L33.3832069,61.2316055 Z M61.3832069,61.2316055 C61.4663305,61.1252515 61.7052431,60.8852671 62.0606164,60.6356114 C62.613312,60.2473334 63.2172668,60.0168253 63.8618908,59.9992577 L63.7533604,59.9992696 C64.4066289,60.0169293 65.0106683,60.2470018 65.5592314,60.6337226 C65.910109,60.881081 66.144039,61.1181155 66.2235934,61.221285 L67.4448784,62.8050978 L70.612504,60.3625278 L69.391219,58.778715 C69.0848685,58.3814269 68.5779442,57.8677752 67.8639741,57.3644473 C66.7121463,56.5524427 65.3707855,56.0415318 63.861452,56.0007304 L63.7529217,56.0007423 C62.2523726,56.0416358 60.9148757,56.5521111 59.7612415,57.3625585 C59.0480478,57.8635891 58.5396267,58.374291 58.2316055,58.7683945 L57,60.3441952 L60.1516014,62.8074062 L61.3832069,61.2316055 Z" fill="#ffffff"/>
    <path d="M81.1374158,30.3397781 C90,39.0153006 90,50 90,50 L90,70 C90,70 90,90 50,90 C10,90 10,70 10,70 L10,50 C10,50 10,39.0044239 18.8757506,30.3268977 L8.26908535,12.0020725 C7.71578346,11.0461491 8.04199423,9.82257681 8.99769749,9.26914743 C9.95340076,8.71571805 11.1766911,9.04200398 11.729993,9.99792746 L21.970129,27.6895106 C27.8958591,23.2892727 36.7550811,20 50,20 C63.2552955,20 72.1180196,23.2944286 78.043793,27.6998546 L88.2922771,9.99792746 C88.8457065,9.04200398 90.0692787,8.71571805 91.0252022,9.26914743 C91.9811257,9.82257681 92.3074116,11.0461491 91.7539822,12.0020725 L81.1374158,30.3397781 Z M14,50 L14,70 C14,69.9724452 14.0069729,70.0770394 14.037923,70.2936896 C14.1025381,70.7459952 14.2244193,71.2741473 14.4197332,71.8600889 C15.0099728,73.6308077 16.093439,75.4365847 17.8284271,77.1715729 C23.24535,82.5884957 33.4798628,86 50,86 C66.5201372,86 76.75465,82.5884957 82.1715729,77.1715729 C83.906561,75.4365847 84.9900272,73.6308077 85.5802668,71.8600889 C85.7755807,71.2741473 85.8974619,70.7459952 85.962077,70.2936896 C85.9930271,70.0770394 86,69.9724452 86,70 L86,50 C86,49.8884469 85.9860708,49.5750394 85.9398931,49.0901739 C85.8573922,48.2239138 85.706612,47.2438431 85.4702518,46.1802218 C84.7903506,43.1206666 83.5663124,40.0605712 81.6717988,37.2188008 C76.1879285,28.9929953 66.2019379,24 50,24 C33.7980621,24 23.8120715,28.9929953 18.3282012,37.2188008 C16.4336876,40.0605712 15.2096494,43.1206666 14.5297482,46.1802218 C14.293388,47.2438431 14.1426078,48.2239138 14.0601069,49.0901739 C14.0139292,49.5750394 14,50 14,50 Z" fill="#ffffff"/>
    <rect stroke="#ffffff" stroke-width="4" x="20" y="45" width="60" height="30" rx="15"/>
  </g>
</svg>